<?xml version="1.0" encoding="utf-8"?>
<!-- Generator: Adobe Illustrator 19.2.0, SVG Export Plug-In . SVG Version: 6.00 Build 0)  -->
<svg version="1.1" id="monitor" xmlns="http://www.w3.org/2000/svg" xmlns:xlink="http://www.w3.org/1999/xlink" x="0px" y="0px"
	 viewBox="0 0 216 188" enable-background="new 0 0 216 188" xml:space="preserve">
<g>
	<polygon fill="none" points="82.0664,180 133.9336,180 125.3632,160 90.6368,160 	"/>
	<path fill="none" d="M8,152h80h40h80v-24H8V152z M108,132c4.412,0,8,3.5901,8,8c0,4.4101-3.588,8-8,8s-8-3.5899-8-8
		C100,135.5901,103.588,132,108,132z"/>
	<path fill="none" d="M203.9728,8H12.0272C9.8068,8,8,9.7773,8,11.9649V120h200V11.9649C208,9.7773,206.1932,8,203.9728,8z
		 M61.078,28.5781L28.828,60.828C28.0468,61.6093,27.0236,62,26,62s-2.0468-0.3907-2.828-1.172
		c-1.5628-1.5623-1.5628-4.0935,0-5.656l32.25-32.2499c1.5624-1.5628,4.0936-1.5628,5.656,0
		C62.6408,24.4845,62.6408,27.0157,61.078,28.5781z"/>
	<path d="M203.9728,0H12.0272C5.3944,0,0,5.3673,0,11.9649V120v8v32h81.9352l-9.6108,22.4257
		c-0.5316,1.2343-0.4044,2.6524,0.3356,3.7776C73.4004,187.3245,74.6564,188,76,188h64c1.3436,0,2.5996-0.6755,3.34-1.7967
		c0.74-1.1252,0.8672-2.5433,0.3356-3.7776L134.0648,160H216v-32v-8V11.9649C216,5.3673,210.6056,0,203.9728,0z M133.9336,180
		H82.0664l8.5704-20h34.7264L133.9336,180z M208,152h-80H88H8v-24h200V152z M8,120V11.9649C8,9.7773,9.8068,8,12.0272,8h191.9456
		C206.1932,8,208,9.7773,208,11.9649V120H8z"/>
	<path d="M108,148c4.412,0,8-3.5899,8-8c0-4.4099-3.588-8-8-8s-8,3.5901-8,8C100,144.4101,103.588,148,108,148z"/>
	<path d="M55.422,22.9221L23.172,55.172c-1.5628,1.5625-1.5628,4.0937,0,5.656C23.9532,61.6093,24.9764,62,26,62
		s2.0468-0.3907,2.828-1.172l32.25-32.2499c1.5628-1.5624,1.5628-4.0936,0-5.656C59.5156,21.3593,56.9844,21.3593,55.422,22.9221z"
		/>
</g>
</svg>
